Coordinates
version=1
nRows=14
nColumns=40
inDegrees=yes

Units are S.I. units (second, meters, Newtons, ...)
Angles are in degrees.

endheader
time	pelvis_tilt	pelvis_list	pelvis_rotation	pelvis_tx	pelvis_ty	pelvis_tz	hip_flexion_r	hip_adduction_r	hip_rotation_r	knee_angle_r	knee_angle_r_beta	ankle_angle_r	subtalar_angle_r	mtp_angle_r	hip_flexion_l	hip_adduction_l	hip_rotation_l	knee_angle_l	knee_angle_l_beta	ankle_angle_l	subtalar_angle_l	mtp_angle_l	lumbar_extension	lumbar_bending	lumbar_rotation	arm_flex_r	arm_add_r	arm_rot_r	elbow_flex_r	pro_sup_r	wrist_flex_r	wrist_dev_r	arm_flex_l	arm_add_l	arm_rot_l	elbow_flex_l	pro_sup_l	wrist_flex_l	wrist_dev_l
      0.84000000	     -6.25822489	      0.15453176	     -1.07067913	     -0.36390543	      0.87513568	      1.50409707	      5.09218200	      0.30878650	     -7.69897840	    -25.96528408	     -0.45317970	     15.38644675	     -1.75282607	     -4.74822774	     35.50127439	      5.73988836	     13.51117145	    -24.17195603	     -0.42188022	      8.44427863	      9.22210556	      2.95500608	     -1.40000562	     -0.00779208	     -0.32689321	      5.52243424	     -8.36871961	    -10.10521944	     38.30881173	     89.95437384	      0.00000000	      0.00000000	     -4.55232999	      8.26718151	     21.54480479	     25.98524154	     89.95437384	      0.00000000	      0.00000000
      0.85000000	     -6.15641422	      0.07694364	     -1.35161959	     -0.35752603	      0.87466773	      1.50288530	      4.73048371	      0.30425586	     -7.25044333	    -26.33929372	     -0.45970740	     15.29306301	     -1.85016652	     -4.75224295	     35.23274841	      5.78201757	     12.89649613	    -24.64225618	     -0.43008851	      8.39576780	      9.72865602	      2.89532454	     -1.41710384	     -0.03956990	     -0.13781738	      5.54953584	     -8.33484227	    -10.09909835	     38.16122639	     89.95437384	      0.00000000	      0.00000000	     -4.54012518	      8.29203926	     21.57551992	     25.99497431	     89.95437384	      0.00000000	      0.00000000
      0.86000000	     -6.25299611	      0.05050008	     -1.51336637	     -0.35081949	      0.87379678	      1.50144867	      4.59317801	      0.16006888	     -7.12150112	    -26.72882486	     -0.46650600	     14.95890184	     -1.82254634	     -4.66791188	     35.09565709	      5.74277102	     12.52371437	    -25.02229245	     -0.43672139	      8.12495378	      9.52873014	      2.84316080	     -1.14628686	     -0.12282676	     -0.09986991	      5.33981878	     -8.29225820	    -10.05495495	     38.30298859	     89.95437384	      0.00000000	      0.00000000	     -4.74613243	      8.33899380	     21.52014177	     26.23042684	     89.95437384	      0.00000000	      0.00000000
      0.87000000	     -6.00040262	     -0.12750929	     -1.78984408	     -0.34405870	      0.87350912	      1.50009296	      4.04032645	      0.25469823	     -6.65991887	    -27.08757395	     -0.47276735	     15.20292242	     -1.99310194	     -4.72165577	     34.66617402	      5.86029618	     12.21624850	    -25.68431404	     -0.44827585	      7.96929320	     10.49912697	      2.89775374	     -1.28074080	     -0.04768058	      0.07665570	      5.45908521	     -8.25940730	    -10.13346554	     37.87961232	     89.95437384	      0.00000000	      0.00000000	     -4.66650180	      8.37629630	     21.49553119	     26.12754044	     89.95437384	      0.00000000	      0.00000000
      0.88000000	     -5.94189657	     -0.17775875	     -1.94646925	     -0.33726793	      0.87304789	      1.49857067	      3.68506586	      0.22343287	     -6.14448889	    -27.40316334	     -0.47827543	     14.97667503	     -2.24354777	     -4.70052249	     34.47660564	      5.82869258	     12.26581006	    -26.17602595	     -0.45685784	      7.33490551	     11.63778089	      3.04537117	     -1.19905978	     -0.12160950	      0.09618063	      5.38019991	     -8.16493386	    -10.19231408	     37.77060289	     89.95437384	      0.00000000	      0.00000000	     -4.67666997	      8.42899575	     21.44097598	     26.08372963	     89.95437384	      0.00000000	      0.00000000
      0.89000000	     -6.03311279	     -0.23182009	     -1.94642003	     -0.33042446	      0.87240782	      1.49673877	      3.55171628	      0.12604849	     -5.98723990	    -27.86191718	     -0.48628219	     14.58458582	     -2.22284357	     -4.61028786	     34.43363143	      5.72533639	     12.07768670	    -26.45832537	     -0.46178489	      7.01778312	     11.39354810	      3.00955424	     -0.93528356	     -0.20507951	      0.04113418	      5.09641991	     -8.16849591	    -10.17281348	     37.84226553	     89.95437384	      0.00000000	      0.00000000	     -4.81662212	      8.48578443	     21.36271116	     26.32208012	     89.95437384	      0.00000000	      0.00000000
      0.90000000	     -5.95298257	     -0.25410527	     -1.99655343	     -0.32387853	      0.87233056	      1.49499682	      3.35743693	      0.04236807	     -5.66816070	    -28.49788860	     -0.49738199	     14.38003943	     -2.56261054	     -4.55404415	     34.25395411	      5.66639781	     12.15470104	    -26.79732113	     -0.46770148	      6.32906421	     11.83997641	      3.07497331	     -0.88571651	     -0.33186874	     -0.09722279	      5.22467899	     -8.01693419	    -10.31403634	     37.32372607	     89.95437384	      0.00000000	      0.00000000	     -4.74604893	      8.59745960	     21.22296978	     26.14525825	     89.95437384	      0.00000000	      0.00000000
      0.91000000	     -6.04841582	     -0.23937007	     -1.96409680	     -0.31697240	      0.87211688	      1.49288757	      3.26384636	     -0.13315468	     -5.49605575	    -28.97694301	     -0.50574306	     13.94602307	     -2.53679572	     -4.44908072	     34.20059782	      5.49816863	     11.87581885	    -27.15155350	     -0.47388401	      5.98337457	     11.45624734	      3.01946900	     -0.61511003	     -0.46875720	     -0.11555965	      4.86060491	     -8.04191872	    -10.30406513	     37.36756948	     89.95437384	      0.00000000	      0.00000000	     -4.85401744	      8.60256474	     21.14433008	     26.44365309	     89.95437384	      0.00000000	      0.00000000
      0.92000000	     -6.08300447	      0.23259353	     -1.94940769	     -0.31041389	      0.87234614	      1.49060766	      3.34957883	     -0.76202491	     -5.08141396	    -29.85747499	     -0.52111124	     13.29520646	     -4.06512155	     -4.21128315	     34.02684332	      4.81098415	     11.67916213	    -27.41277328	     -0.47844315	      4.66729353	     12.23098319	      3.03488670	     -0.41512977	     -1.13149019	     -0.19894714	      4.96786828	     -7.69745186	    -11.04605933	     36.63145415	     89.95437384	      0.00000000	      0.00000000	     -4.71548838	      8.74645141	     21.01479118	     26.25963204	     89.95437384	      0.00000000	      0.00000000
      0.93000000	     -6.01666340	      0.25512179	     -1.74725628	     -0.30344412	      0.87262518	      1.48835216	      3.17433186	     -0.93778569	     -5.00724736	    -30.55804814	     -0.53333855	     12.77820904	     -4.13563316	     -4.08695535	     33.89619984	      4.64237061	     11.62197711	    -28.06137169	     -0.48976333	      4.26049644	     12.05567339	      2.98183059	     -0.31724056	     -1.30852627	     -0.46238697	      4.72912932	     -7.64428212	    -11.08402699	     36.47096837	     89.95437384	      0.00000000	      0.00000000	     -4.73091478	      8.82549716	     20.91069384	     26.35278500	     89.95437384	      0.00000000	      0.00000000
      0.94000000	     -5.94554986	      0.33087322	     -1.58953683	     -0.29622678	      0.87309731	      1.48612596	      3.01654195	     -1.23016773	     -5.24292621	    -31.24875815	     -0.54539372	     12.00448469	     -4.65014557	     -3.86550455	     33.64640019	      4.43270821	     11.65487980	    -28.57406472	     -0.49871151	      3.83975690	     12.26798751	      2.95680989	     -0.16506233	     -1.54531433	     -0.60815786	      4.55631044	     -7.54350461	    -11.36637739	     35.98968472	     89.95437384	      0.00000000	      0.00000000	     -4.68849101	      8.89535156	     20.84620800	     26.34454714	     89.95437384	      0.00000000	      0.00000000
      0.95000000	     -5.83600953	      0.36547089	     -1.40945970	     -0.28900975	      0.87368973	      1.48395633	      2.87939636	     -1.42450314	     -5.32973305	    -32.05132260	     -0.55940111	     11.04653631	     -5.21717204	     -3.58674388	     33.26486841	      4.19835763	     11.48589032	    -28.90626314	     -0.50450947	      3.44412825	     12.63210542	      2.97810613	     -0.07451255	     -1.73774238	     -0.81353649	      4.31027441	     -7.42255986	    -11.62618428	     35.67361983	     89.95437384	      0.00000000	      0.00000000	     -4.66378391	      8.98153515	     20.77403886	     26.36376597	     89.95437384	      0.00000000	      0.00000000
      0.96000000	     -5.73057812	      0.45756801	     -1.15515007	     -0.28170740	      0.87440537	      1.48152911	      2.76965721	     -1.65112343	     -5.36561203	    -32.86741108	     -0.57364454	      9.84022352	     -6.27963303	     -3.10349261	     32.76800741	      3.72948290	     10.93634712	    -28.98281787	     -0.50584560	      3.12932454	     13.48187778	      3.03558140	      0.02457111	     -1.97953287	     -1.03935199	      3.96286163	     -7.34196179	    -11.88848891	     35.47003257	     89.95437384	      0.00000000	      0.00000000	     -4.59461399	      9.02105826	     20.83933573	     26.32034412	     89.95437384	      0.00000000	      0.00000000
      0.97000000	     -5.76975261	      0.37716906	     -0.95669223	     -0.27404738	      0.87482562	      1.47939710	      2.68812987	     -1.66118272	     -5.24858694	    -33.47448200	     -0.58423993	      9.42818936	     -6.08196507	     -3.02563309	     32.49180124	      3.65545559	     10.75332733	    -29.31651868	     -0.51166978	      2.93159328	     13.05211444	      2.98400721	      0.35619255	     -2.04864314	     -1.13588495	      3.37535582	     -7.38410511	    -11.85623899	     35.44973671	     89.95437384	      0.00000000	      0.00000000	     -4.73152147	      9.04388207	     20.78376894	     26.59923716	     89.95437384	      0.00000000	      0.00000000
